<svg xmlns="http://www.w3.org/2000/svg" viewBox="60 20 280 570" width="560" height="1140"><ellipse cx="200" cy="566" rx="96" ry="12" fill="#000" opacity=".18"/><g id="hood-back"><path d="M 116 172 C 108 80 160 42 202 42 C 250 42 294 80 286 172 C 286 222 268 250 256 262 L 146 262 C 132 250 116 222 116 172 Z" fill="#3a3f4b" stroke="#2a1e2c" stroke-width="5" stroke-linejoin="round" stroke-linecap="round" /></g><g id="thigh-l"><line x1="172" y1="398" x2="168" y2="470" stroke="#2a1e2c" stroke-width="52" stroke-linecap="round"/><line x1="172" y1="398" x2="168" y2="470" stroke="#27303d" stroke-width="42" stroke-linecap="round"/><line x1="162.76" y1="398" x2="158.76" y2="470" stroke="#202834" stroke-width="14.7" stroke-linecap="round" opacity=".55"/></g><g id="shin-l"><line x1="168" y1="470" x2="166" y2="532" stroke="#2a1e2c" stroke-width="47" stroke-linecap="round"/><line x1="168" y1="470" x2="166" y2="532" stroke="#27303d" stroke-width="37" stroke-linecap="round"/><line x1="159.86" y1="470" x2="157.86" y2="532" stroke="#202834" stroke-width="12.95" stroke-linecap="round" opacity=".55"/></g><g id="foot-l"><path d="M 136 560 C 136 538 154 530 170 532 C 190 534 200 548 200 560 Z" fill="#e8e8e8" stroke="#2a1e2c" stroke-width="5" stroke-linejoin="round" stroke-linecap="round" /><path d="M 138 556 L 198 556" fill="none" stroke="#d64545" stroke-width="5" stroke-linecap="round" stroke-linejoin="round" /></g><g id="thigh-r"><line x1="228" y1="398" x2="232" y2="470" stroke="#2a1e2c" stroke-width="52" stroke-linecap="round"/><line x1="228" y1="398" x2="232" y2="470" stroke="#27303d" stroke-width="42" stroke-linecap="round"/><line x1="218.76" y1="398" x2="222.76" y2="470" stroke="#202834" stroke-width="14.7" stroke-linecap="round" opacity=".55"/></g><g id="shin-r"><line x1="232" y1="470" x2="234" y2="532" stroke="#2a1e2c" stroke-width="47" stroke-linecap="round"/><line x1="232" y1="470" x2="234" y2="532" stroke="#27303d" stroke-width="37" stroke-linecap="round"/><line x1="223.86" y1="470" x2="225.86" y2="532" stroke="#202834" stroke-width="12.95" stroke-linecap="round" opacity=".55"/></g><g id="foot-r"><path d="M 204 560 C 204 538 222 530 238 532 C 258 534 268 548 268 560 Z" fill="#e8e8e8" stroke="#2a1e2c" stroke-width="5" stroke-linejoin="round" stroke-linecap="round" /><path d="M 206 556 L 266 556" fill="none" stroke="#d64545" stroke-width="5" stroke-linecap="round" stroke-linejoin="round" /></g><g id="pelvis"><path d="M 132 384 L 268 384 L 266 420 L 134 420 Z" fill="#27303d" stroke="#2a1e2c" stroke-width="5" stroke-linejoin="round" stroke-linecap="round" /></g><g id="torso"><path d="M 136 244 C 150 234 176 230 200 230 C 226 230 252 234 264 244 L 276 305 L 270 402 L 130 402 L 124 305 Z" fill="#3a3f4b" stroke="#2a1e2c" stroke-width="5" stroke-linejoin="round" stroke-linecap="round" /><path d="M 138 250 L 128 305 L 134 400 L 158 400 C 150 350 150 300 160 256 Z" fill="#2b2f38" /><path d="M 158 330 L 242 330 L 236 382 L 164 382 Z" fill="#333843" stroke="#2a1e2c" stroke-width="4" stroke-linejoin="round" stroke-linecap="round" /><path d="M 186 236 L 182 290 M 214 236 L 218 290" fill="none" stroke="#d9d9d9" stroke-width="4" stroke-linecap="round" stroke-linejoin="round" /><circle cx="182" cy="294" r="4" fill="#d9d9d9"/><circle cx="218" cy="294" r="4" fill="#d9d9d9"/></g><g id="upper-arm-l"><line x1="140" y1="250" x2="120" y2="318" stroke="#2a1e2c" stroke-width="42" stroke-linecap="round"/><line x1="140" y1="250" x2="120" y2="318" stroke="#3a3f4b" stroke-width="32" stroke-linecap="round"/><line x1="132.96" y1="250" x2="112.96" y2="318" stroke="#303540" stroke-width="11.2" stroke-linecap="round" opacity=".55"/></g><g id="forearm-l"><line x1="120" y1="318" x2="108" y2="380" stroke="#2a1e2c" stroke-width="37" stroke-linecap="round"/><line x1="120" y1="318" x2="108" y2="380" stroke="#3a3f4b" stroke-width="27" stroke-linecap="round"/><line x1="114.06" y1="318" x2="102.06" y2="380" stroke="#303540" stroke-width="9.45" stroke-linecap="round" opacity=".55"/></g><g id="hand-l"><circle cx="108" cy="396" r="18" fill="#f1c9a5" stroke="#2a1e2c" stroke-width="5"/></g><g id="upper-arm-r"><line x1="260" y1="250" x2="280" y2="318" stroke="#2a1e2c" stroke-width="42" stroke-linecap="round"/><line x1="260" y1="250" x2="280" y2="318" stroke="#3a3f4b" stroke-width="32" stroke-linecap="round"/><line x1="252.96" y1="250" x2="272.96" y2="318" stroke="#303540" stroke-width="11.2" stroke-linecap="round" opacity=".55"/></g><g id="forearm-r"><line x1="280" y1="318" x2="292" y2="380" stroke="#2a1e2c" stroke-width="37" stroke-linecap="round"/><line x1="280" y1="318" x2="292" y2="380" stroke="#3a3f4b" stroke-width="27" stroke-linecap="round"/><line x1="274.06" y1="318" x2="286.06" y2="380" stroke="#303540" stroke-width="9.45" stroke-linecap="round" opacity=".55"/></g><g id="hand-r"><circle cx="292" cy="396" r="18" fill="#f1c9a5" stroke="#2a1e2c" stroke-width="5"/></g><g id="prop-can"><path d="M 282 360 L 310 360 L 312 408 L 280 408 Z" fill="#35c26b" stroke="#2a1e2c" stroke-width="4" stroke-linejoin="round" stroke-linecap="round" /><path d="M 283 352 L 309 352 L 310 362 L 282 362 Z" fill="#bfc7c9" stroke="#2a1e2c" stroke-width="3" stroke-linejoin="round" stroke-linecap="round" /><path d="M 287 380 L 305 376 L 290 392 L 306 388" fill="none" stroke="#101010" stroke-width="3" stroke-linecap="round" stroke-linejoin="round" /></g><g id="neck"><path d="M 186 222 L 216 222 L 216 244 L 186 244 Z" fill="#f1c9a5" stroke="#2a1e2c" stroke-width="4" stroke-linejoin="round" stroke-linecap="round" /><path d="M 188 226 L 214 226 L 214 234 L 188 234 Z" fill="#eaa262" /></g><g id="headphones-neck"><path d="M 150 246 C 160 272 240 272 250 246" fill="none" stroke="#1b1b1b" stroke-width="9" stroke-linecap="round" stroke-linejoin="round" /><path d="M 134 236 C 134 222 156 222 156 236 L 156 256 C 156 268 134 268 134 256 Z" fill="#2b2b2b" stroke="#2a1e2c" stroke-width="4" stroke-linejoin="round" stroke-linecap="round" /><path d="M 244 236 C 244 222 266 222 266 236 L 266 256 C 266 268 244 268 244 256 Z" fill="#2b2b2b" stroke="#2a1e2c" stroke-width="4" stroke-linejoin="round" stroke-linecap="round" /><circle cx="255" cy="246" r="4" fill="#39d353"/></g><g id="ears"><circle cx="133" cy="164" r="14" fill="#f1c9a5" stroke="#2a1e2c" stroke-width="5"/><circle cx="271" cy="164" r="14" fill="#f1c9a5" stroke="#2a1e2c" stroke-width="5"/></g><g id="head"><path d="M 130 152 C 130 92 168 70 202 70 C 242 70 272 96 272 152 C 272 202 240 234 202 234 C 164 234 130 202 130 152 Z" fill="#f1c9a5" stroke="#2a1e2c" stroke-width="5" stroke-linejoin="round" stroke-linecap="round" /><path d="M 134 150 C 134 200 164 230 202 234 C 176 222 152 196 150 150 C 150 118 162 96 180 82 C 152 92 134 116 134 150 Z" fill="#ecab70" /></g><g id="face"><g id="eyes"><path d="M 167 164 C 167 148 193 148 193 164 C 193 176 167 176 167 164 Z" fill="#fff" stroke="#2a1e2c" stroke-width="3" stroke-linejoin="round" stroke-linecap="round" /><circle cx="182" cy="167" r="7" fill="#5b3a24"/><circle cx="182" cy="167" r="3.5" fill="#2a1e2c"/><path d="M 165 164 C 165 146 195 146 195 164 Z" fill="#f1c9a5" stroke="#2a1e2c" stroke-width="3" stroke-linejoin="round" stroke-linecap="round" /><path d="M 168 182 C 176 187 186 187 192 182" fill="none" stroke="#7b5a86" stroke-width="3" stroke-linecap="round" stroke-linejoin="round" opacity=".7"/><path d="M 217 164 C 217 148 243 148 243 164 C 243 176 217 176 217 164 Z" fill="#fff" stroke="#2a1e2c" stroke-width="3" stroke-linejoin="round" stroke-linecap="round" /><circle cx="232" cy="167" r="7" fill="#5b3a24"/><circle cx="232" cy="167" r="3.5" fill="#2a1e2c"/><path d="M 215 164 C 215 146 245 146 245 164 Z" fill="#f1c9a5" stroke="#2a1e2c" stroke-width="3" stroke-linejoin="round" stroke-linecap="round" /><path d="M 218 182 C 226 187 236 187 242 182" fill="none" stroke="#7b5a86" stroke-width="3" stroke-linecap="round" stroke-linejoin="round" opacity=".7"/></g><g id="brows"><path d="M 165 142 L 192 145 M 216 145 L 243 141" fill="none" stroke="#2a1e2c" stroke-width="5" stroke-linecap="round" stroke-linejoin="round" /></g><g id="nose"><path d="M 208 176 C 212 186 210 190 203 190" fill="none" stroke="#d7741c" stroke-width="3.5" stroke-linecap="round" stroke-linejoin="round" /></g><g id="mouth"><path d="M 196 206 C 204 204 212 204 218 207" fill="none" stroke="#2a1e2c" stroke-width="4" stroke-linecap="round" stroke-linejoin="round" /><path d="M 214 208 C 216 214 214 218 211 217 C 209 216 210 211 214 208 Z" fill="#9ed3ff" stroke="#2a1e2c" stroke-width="2" stroke-linejoin="round" stroke-linecap="round" /></g></g><g id="hood-rim"><path d="M 126 196 C 116 104 168 62 202 62 C 246 62 286 104 276 196" fill="none" stroke="#3a3f4b" stroke-width="16" stroke-linecap="round" stroke-linejoin="round" /><path d="M 126 196 C 116 104 168 62 202 62 C 246 62 286 104 276 196" fill="none" stroke="#2a1e2c" stroke-width="4" stroke-linecap="round" stroke-linejoin="round" /></g><g id="bangs"><path d="M 140 126 L 156 94 L 170 120 L 186 88 L 200 118 L 218 86 L 228 118 L 248 94 L 260 128 C 238 112 168 110 140 126 Z" fill="#1f1a22" stroke="#2a1e2c" stroke-width="4" stroke-linejoin="round" stroke-linecap="round" /></g></svg>