<svg xmlns="http://www.w3.org/2000/svg" viewBox="60 20 280 570" width="560" height="1140"><ellipse cx="200" cy="566" rx="96" ry="12" fill="#000" opacity=".18"/><g id="thigh-l"><line x1="172" y1="398" x2="168" y2="470" stroke="#2a1e2c" stroke-width="52" stroke-linecap="round"/><line x1="172" y1="398" x2="168" y2="470" stroke="#222a44" stroke-width="42" stroke-linecap="round"/><line x1="162.76" y1="398" x2="158.76" y2="470" stroke="#1c233a" stroke-width="14.7" stroke-linecap="round" opacity=".55"/></g><g id="shin-l"><line x1="168" y1="470" x2="166" y2="532" stroke="#2a1e2c" stroke-width="47" stroke-linecap="round"/><line x1="168" y1="470" x2="166" y2="532" stroke="#222a44" stroke-width="37" stroke-linecap="round"/><line x1="159.86" y1="470" x2="157.86" y2="532" stroke="#1c233a" stroke-width="12.95" stroke-linecap="round" opacity=".55"/></g><g id="foot-l"><path d="M 136 560 C 136 538 154 530 170 532 C 190 534 200 548 200 560 Z" fill="#ff3d7f" stroke="#2a1e2c" stroke-width="5" stroke-linejoin="round" stroke-linecap="round" /><path d="M 138 556 L 198 556" fill="none" stroke="#ffffff" stroke-width="5" stroke-linecap="round" stroke-linejoin="round" /></g><g id="thigh-r"><line x1="228" y1="398" x2="232" y2="470" stroke="#2a1e2c" stroke-width="52" stroke-linecap="round"/><line x1="228" y1="398" x2="232" y2="470" stroke="#222a44" stroke-width="42" stroke-linecap="round"/><line x1="218.76" y1="398" x2="222.76" y2="470" stroke="#1c233a" stroke-width="14.7" stroke-linecap="round" opacity=".55"/></g><g id="shin-r"><line x1="232" y1="470" x2="234" y2="532" stroke="#2a1e2c" stroke-width="47" stroke-linecap="round"/><line x1="232" y1="470" x2="234" y2="532" stroke="#222a44" stroke-width="37" stroke-linecap="round"/><line x1="223.86" y1="470" x2="225.86" y2="532" stroke="#1c233a" stroke-width="12.95" stroke-linecap="round" opacity=".55"/></g><g id="foot-r"><path d="M 204 560 C 204 538 222 530 238 532 C 258 534 268 548 268 560 Z" fill="#ff3d7f" stroke="#2a1e2c" stroke-width="5" stroke-linejoin="round" stroke-linecap="round" /><path d="M 206 556 L 266 556" fill="none" stroke="#ffffff" stroke-width="5" stroke-linecap="round" stroke-linejoin="round" /></g><g id="pelvis"><path d="M 132 384 L 268 384 L 266 420 L 134 420 Z" fill="#222a44" stroke="#2a1e2c" stroke-width="5" stroke-linejoin="round" stroke-linecap="round" /></g><g id="torso"><path d="M 124 242 C 146 230 176 226 200 226 C 226 226 256 230 276 242 L 292 310 L 282 424 L 118 424 L 108 310 Z" fill="#ffcc33" stroke="#2a1e2c" stroke-width="5" stroke-linejoin="round" stroke-linecap="round" /><path d="M 126 248 L 112 310 L 122 422 L 150 422 C 140 360 140 300 152 254 Z" fill="#f4b700" /><path d="M 124 250 L 108 310 M 276 250 L 292 310" fill="none" stroke="#222" stroke-width="6" stroke-linecap="round" stroke-linejoin="round" /><text x="204" y="350" text-anchor="middle" font-family="Arial Black,Arial" font-weight="900" font-size="58" fill="#222" stroke="#fff" stroke-width="3" paint-order="stroke">00</text></g><g id="upper-arm-l"><line x1="140" y1="250" x2="120" y2="318" stroke="#2a1e2c" stroke-width="42" stroke-linecap="round"/><line x1="140" y1="250" x2="120" y2="318" stroke="#ffcc33" stroke-width="32" stroke-linecap="round"/><line x1="132.96" y1="250" x2="112.96" y2="318" stroke="#ffc005" stroke-width="11.2" stroke-linecap="round" opacity=".55"/></g><g id="forearm-l"><line x1="120" y1="318" x2="108" y2="380" stroke="#2a1e2c" stroke-width="37" stroke-linecap="round"/><line x1="120" y1="318" x2="108" y2="380" stroke="#f6d2b5" stroke-width="27" stroke-linecap="round"/><line x1="114.06" y1="318" x2="102.06" y2="380" stroke="#f1ae79" stroke-width="9.45" stroke-linecap="round" opacity=".55"/><line x1="108" y1="364" x2="108" y2="380" stroke="#2a1e2c" stroke-width="39" stroke-linecap="round"/><line x1="108" y1="364" x2="108" y2="380" stroke="#ff3d7f" stroke-width="29" stroke-linecap="round"/><line x1="101.62" y1="364" x2="101.62" y2="380" stroke="#ff0d5f" stroke-width="10.149999999999999" stroke-linecap="round" opacity=".55"/></g><g id="hand-l"><circle cx="108" cy="396" r="18" fill="#222" stroke="#2a1e2c" stroke-width="5"/><circle cx="100" cy="410" r="4" fill="#f6d2b5"/><circle cx="108" cy="410" r="4" fill="#f6d2b5"/><circle cx="116" cy="410" r="4" fill="#f6d2b5"/></g><g id="upper-arm-r"><line x1="260" y1="250" x2="280" y2="318" stroke="#2a1e2c" stroke-width="42" stroke-linecap="round"/><line x1="260" y1="250" x2="280" y2="318" stroke="#ffcc33" stroke-width="32" stroke-linecap="round"/><line x1="252.96" y1="250" x2="272.96" y2="318" stroke="#ffc005" stroke-width="11.2" stroke-linecap="round" opacity=".55"/></g><g id="forearm-r"><line x1="280" y1="318" x2="292" y2="380" stroke="#2a1e2c" stroke-width="37" stroke-linecap="round"/><line x1="280" y1="318" x2="292" y2="380" stroke="#f6d2b5" stroke-width="27" stroke-linecap="round"/><line x1="274.06" y1="318" x2="286.06" y2="380" stroke="#f1ae79" stroke-width="9.45" stroke-linecap="round" opacity=".55"/><line x1="292" y1="364" x2="292" y2="380" stroke="#2a1e2c" stroke-width="39" stroke-linecap="round"/><line x1="292" y1="364" x2="292" y2="380" stroke="#ff3d7f" stroke-width="29" stroke-linecap="round"/><line x1="285.62" y1="364" x2="285.62" y2="380" stroke="#ff0d5f" stroke-width="10.149999999999999" stroke-linecap="round" opacity=".55"/></g><g id="hand-r"><circle cx="292" cy="396" r="18" fill="#222" stroke="#2a1e2c" stroke-width="5"/><circle cx="284" cy="410" r="4" fill="#f6d2b5"/><circle cx="292" cy="410" r="4" fill="#f6d2b5"/><circle cx="300" cy="410" r="4" fill="#f6d2b5"/></g><g id="neck"><path d="M 186 222 L 216 222 L 216 244 L 186 244 Z" fill="#f6d2b5" stroke="#2a1e2c" stroke-width="4" stroke-linejoin="round" stroke-linecap="round" /><path d="M 188 226 L 214 226 L 214 234 L 188 234 Z" fill="#f0a76d" /></g><g id="ears"><circle cx="133" cy="164" r="14" fill="#f6d2b5" stroke="#2a1e2c" stroke-width="5"/><circle cx="271" cy="164" r="14" fill="#f6d2b5" stroke="#2a1e2c" stroke-width="5"/></g><g id="head"><path d="M 130 152 C 130 92 168 70 202 70 C 242 70 272 96 272 152 C 272 202 240 234 202 234 C 164 234 130 202 130 152 Z" fill="#f6d2b5" stroke="#2a1e2c" stroke-width="5" stroke-linejoin="round" stroke-linecap="round" /><path d="M 134 150 C 134 200 164 230 202 234 C 176 222 152 196 150 150 C 150 118 162 96 180 82 C 152 92 134 116 134 150 Z" fill="#f2b17c" /></g><g id="face"><circle cx="164" cy="190" r="2" fill="#b0735a"/><circle cx="172" cy="195" r="2" fill="#b0735a"/><circle cx="244" cy="192" r="2" fill="#b0735a"/><g id="eyes"><path d="M 180 147 C 196 147 196 181 180 181 C 164 181 164 147 180 147 Z" fill="#fff" stroke="#2a1e2c" stroke-width="3" stroke-linejoin="round" stroke-linecap="round" /><circle cx="183" cy="166" r="10" fill="#3fbf57"/><circle cx="183" cy="166" r="4.5" fill="#2a1e2c"/><circle cx="187" cy="161" r="3" fill="#fff"/><circle cx="179" cy="171" r="1.8" fill="#fff"/><path d="M 192 150 l 7 -6 M 195 156 l 8 -3" fill="none" stroke="#2a1e2c" stroke-width="3" stroke-linecap="round" stroke-linejoin="round" /><path d="M 230 147 C 246 147 246 181 230 181 C 214 181 214 147 230 147 Z" fill="#fff" stroke="#2a1e2c" stroke-width="3" stroke-linejoin="round" stroke-linecap="round" /><circle cx="233" cy="166" r="10" fill="#3fbf57"/><circle cx="233" cy="166" r="4.5" fill="#2a1e2c"/><circle cx="237" cy="161" r="3" fill="#fff"/><circle cx="229" cy="171" r="1.8" fill="#fff"/><path d="M 242 150 l 7 -6 M 245 156 l 8 -3" fill="none" stroke="#2a1e2c" stroke-width="3" stroke-linecap="round" stroke-linejoin="round" /></g><g id="brows"><path d="M 164 132 C 174 124 186 124 194 128 M 216 128 C 226 124 238 124 246 132" fill="none" stroke="#2a1e2c" stroke-width="5" stroke-linecap="round" stroke-linejoin="round" /></g><g id="nose"><path d="M 208 176 C 212 186 210 190 203 190" fill="none" stroke="#e87417" stroke-width="3.5" stroke-linecap="round" stroke-linejoin="round" /></g><g id="mouth"><path d="M 186 198 C 196 198 216 198 228 196 C 226 218 214 226 206 226 C 196 226 188 216 186 198 Z" fill="#7a2a36" stroke="#2a1e2c" stroke-width="4" stroke-linejoin="round" stroke-linecap="round" /><path d="M 190 200 L 226 198 L 225 208 L 191 209 Z" fill="#ffffff" /><path d="M 191 204 L 225 203" fill="none" stroke="#9aa4ad" stroke-width="2.5" stroke-linecap="round" stroke-linejoin="round" /><rect x="195" y="201" width="4" height="5" fill="#9aa4ad"/><rect x="204" y="201" width="4" height="5" fill="#9aa4ad"/><rect x="213" y="201" width="4" height="5" fill="#9aa4ad"/><rect x="221" y="201" width="4" height="5" fill="#9aa4ad"/></g></g><g id="hair"><path d="M 134 138 L 124 96 L 150 106 L 146 58 L 172 90 L 182 40 L 200 84 L 220 38 L 230 86 L 258 54 L 256 106 L 282 96 L 270 140 C 250 118 160 116 134 138 Z" fill="#f5ea9a" stroke="#2a1e2c" stroke-width="5" stroke-linejoin="round" stroke-linecap="round" /><path d="M 140 134 C 164 118 244 118 266 136 L 262 124 C 240 108 166 108 144 122 Z" fill="#6b5433" /></g></svg>